inDegrees=yes
name=ik_OwnShooting_orientations.mot
DataType=double
version=3
OpenSimVersion=4.3-2021-08-27-4bc7ad9
endheader
time	pelvis_tilt	pelvis_list	pelvis_rotation	pelvis_tx	pelvis_ty	pelvis_tz	hip_flexion_r	hip_adduction_r	hip_rotation_r	knee_angle_r	knee_angle_r_beta	ankle_angle_r	subtalar_angle_r	mtp_angle_r	hip_flexion_l	hip_adduction_l	hip_rotation_l	knee_angle_l	knee_angle_l_beta	ankle_angle_l	subtalar_angle_l	mtp_angle_l	lumbar_extension	lumbar_bending	lumbar_rotation	arm_flex_r	arm_add_r	arm_rot_r	elbow_flex_r	pro_sup_r	wrist_flex_r	wrist_dev_r	arm_flex_l	arm_add_l	arm_rot_l	elbow_flex_l	pro_sup_l	wrist_flex_l	wrist_dev_l
10	-0.1229549607824512	-1.659468343980958	-144.9277782809184	0	0.9399999999999999	0	44.97019561039469	-10.00000893568324	0	59.98923686759222	1.047009699098254	-5.000000064256762	0	0	44.97019561039469	-10.00000893568324	0	59.98923686759222	1.047009699098254	-5.000000064256762	0	0	1.038696225341483	-2.176679480392071	-0.9503478596590337	3.67328814646488	23.0915097212117	21.92945909178221	0.002127974663079531	45.00007749957973	0	0	0	-14.70289745726899	0	75.03706297868654	45.00007749957973	0	0
10.01	-0.124481886016344	-1.654175807407516	-144.9277258584721	0	0.9399999999999999	0	44.970203106992	-10.00000892781638	0	59.98923901962205	1.04700973665826	-5.000000064012189	0	0	44.970203106992	-10.00000892781638	0	59.98923901962205	1.04700973665826	-5.000000064012189	0	0	1.036105887547802	-2.179543528755091	-0.9319138706510762	3.60509147951315	23.0542789233969	21.58274363544394	0.00211341725493551	45.00007744586071	0	0	0	-14.70293570580205	0	75.03705370067037	45.00007744586071	0	0
10.02	-0.130890800571342	-1.658453541390969	-144.9172746198105	0	0.9399999999999999	0	44.97020614829926	-10.00000892465256	0	59.98923989855891	1.047009751998602	-5.000000063914007	0	0	44.97020614829926	-10.00000892465256	0	59.98923989855891	1.047009751998602	-5.000000063914007	0	0	1.023884076299903	-2.188731011783942	-0.9226098069272045	3.396782547691871	22.96526924694431	21.49791505600951	0.002100658487540737	45.00007742422233	0	0	0	-14.70295129852935	0	75.03704993665615	45.00007742422233	0	0
10.03	-0.148033768336897	-1.647262338332293	-144.9085417360475	0	0.9399999999999999	0	44.97021176248856	-10.00000891878118	0	59.98924151379976	1.047009780189873	-5.000000063731623	0	0	44.97021176248856	-10.00000891878118	0	59.98924151379976	1.047009780189873	-5.000000063731623	0	0	1.042140880406373	-2.170407101036516	-0.9712568408549809	3.319269673927661	22.90566288812177	21.28994324555462	0.002083095854265686	45.00007738410189	0	0	0	-14.70297999146287	0	75.03704298836506	45.00007738410189	0	0
10.04	-0.1568949812032141	-1.63838894750164	-144.8892366888674	0	0.9399999999999999	0	44.9702189826892	-10.00000891121977	0	59.98924358792593	1.047009816390204	-5.00000006349671	0	0	44.9702189826892	-10.00000891121977	0	59.98924358792593	1.047009816390204	-5.00000006349671	0	0	1.037887234402232	-2.152539047729343	-0.9999727698174524	3.289483853696421	22.92509050650385	20.9669660313751	0.002065128372152587	45.0000773324423	0	0	0	-14.70301685474414	0	75.03703405242565	45.0000773324423	0	0
10.05	-0.1524300140688	-1.642853118862792	-144.8968658659884	0	0.9399999999999999	0	44.97022290794188	-10.00000890713017	0	59.98924471983111	1.047009836145676	-5.000000063369802	0	0	44.97022290794188	-10.00000890713017	0	59.98924471983111	1.047009836145676	-5.000000063369802	0	0	1.00771548750681	-2.145515095806094	-0.9566989205338271	3.085574544895526	22.83686924321487	20.93978208489094	0.002058336317596598	45.00007730447517	0	0	0	-14.70303695145225	0	75.03702919441375	45.00007730447517	0	0
10.06	-0.1440293282523715	-1.628113654675021	-144.8821161022475	0	0.9399999999999999	0	44.97022994250253	-10.00000889977327	0	59.98924674152614	1.047009871430911	-5.000000063141357	0	0	44.97022994250253	-10.00000889977327	0	59.98924674152614	1.047009871430911	-5.000000063141357	0	0	1.018898529177959	-2.122532979624526	-0.9917091020672443	3.174614511173912	22.68771075604475	20.62113055507749	0.002047935308712241	45.00007725419524	0	0	0	-14.70307288279856	0	75.03702048822804	45.00007725419524	0	0
10.07	-0.1583155410533145	-1.631888707050977	-144.8838932800005	0	0.9399999999999999	0	44.97023191701327	-10.00000889773547	0	59.98924731485226	1.047009881437339	-5.000000063078248	0	0	44.97023191701327	-10.00000889773547	0	59.98924731485226	1.047009881437339	-5.000000063078248	0	0	1.011376183477312	-2.138416648976688	-1.019097018798739	2.999149180879028	22.5551301778332	20.41665134235019	0.002040832018163669	45.00007724023482	0	0	0	-14.70308304333278	0	75.0370180445135	45.00007724023482	0	0
10.08	-0.1456703946942305	-1.613417209838802	-144.8650099781231	0	0.9399999999999999	0	44.97024046204096	-10.00000888880036	0	59.98924976945882	1.047009924278306	-5.000000062800855	0	0	44.97024046204096	-10.00000888880036	0	59.98924976945882	1.047009924278306	-5.000000062800855	0	0	1.034601617757859	-2.11118164875151	-1.018481513654183	3.319951488056785	22.34778639478356	19.87848308826026	0.002024681120352926	45.00007717916089	0	0	0	-14.70312667964304	0	75.03700746892794	45.00007717916089	0	0
10.09	-0.1622461545246726	-1.597576573740068	-144.8643696379238	0	0.9399999999999999	0	44.97024961750017	-10.00000887922282	0	59.9892523970448	1.047009970138332	-5.000000062503547	0	0	44.97024961750017	-10.00000887922282	0	59.9892523970448	1.047009970138332	-5.000000062503547	0	0	1.028792705384882	-2.088815334629448	-1.014755498617592	3.452148963716817	22.13838090840677	19.42701827352661	0.00201600356492544	45.00007711369489	0	0	0	-14.70317340778516	0	75.03699613785389	45.00007711369489	0	0
10.1	-0.1768064121535323	-1.598995336916038	-144.8570243715726	0	0.9399999999999999	0	44.97025160664869	-10.000008877173	0	59.98925297463509	1.047009980219185	-5.000000062440108	0	0	44.97025160664869	-10.000008877173	0	59.98925297463509	1.047009980219185	-5.000000062440108	0	0	1.023278265931937	-2.113355658851785	-1.038344751890953	3.268135762223646	21.97012827584308	19.24835121844873	0.002015643780203846	45.00007709964568	0	0	0	-14.70318364608198	0	75.0369936760232	45.00007709964568	0	0
10.11	-0.1510886725646997	-1.587996289005386	-144.8473844838068	0	0.9399999999999999	0	44.97025720254164	-10.00000887134461	0	59.98925458550455	1.04701000833416	-5.000000062259364	0	0	44.97025720254164	-10.00000887134461	0	59.98925458550455	1.04701000833416	-5.000000062259364	0	0	1.052814961909337	-2.086146560179576	-1.045252942899325	3.227711546596082	21.80497505744134	19.04758196957334	0.002010757932274016	45.00007705977271	0	0	0	-14.70321227148419	0	75.03698675037619	45.00007705977271	0	0
10.12	-0.1534760994357943	-1.569961296663735	-144.8223815396274	0	0.9399999999999999	0	44.97026511052599	-10.00000886309551	0	59.98925685807773	1.047010047998045	-5.000000062003515	0	0	44.97026511052599	-10.00000886309551	0	59.98925685807773	1.047010047998045	-5.000000062003515	0	0	1.063906511681973	-2.066058892610853	-1.078471031824594	3.587430060006615	21.56937788268442	18.5157100473734	0.002001125220334876	45.00007700335005	0	0	0	-14.70325267823327	0	75.03697696321476	45.00007700335005	0	0
10.13	-0.1371551789501383	-1.55384225746315	-144.7837670146774	0	0.9399999999999999	0	44.97027110679024	-10.00000885686816	0	59.98925858681279	1.047010078170164	-5.000000061810558	0	0	44.97027110679024	-10.00000885686816	0	59.98925858681279	1.047010078170164	-5.000000061810558	0	0	1.093073337524441	-2.055956323204151	-1.124945701651453	3.943066716477929	21.45562765684194	18.08301003019345	0.001991582366429062	45.00007696072045	0	0	0	-14.70328338963302	0	75.03696954205601	45.00007696072045	0	0
